Genre:Comedy 
Language:English
IMDb:http://www.imdb.com/title/tt0979434/
Source:Seazer73

General
Complete name :Lottery Ticket 2010 CamRip Xvid Feel-Free
Format : AVI
Format/Info : Audio Video Interleave
File size : 1.00 GiB
Duration : 1h 33mn
Overall bit rate : 1 543 Kbps
Writing library : VirtualDub build 32817/release
Video #0
Codec ID : XVID
Codec ID/Hint : XviD
Duration : 1h 33mn
Bit rate : 1 339 Kbps
Width : 652 pixels
Height : 352 pixels
Display aspect ratio : 1.852
Frame rate : 29.970 fps
Resolution : 24 bits
Colorimetry : 4:2:0
Scan type : Progressive
Bits/(Pixel*Frame) : 0.195
Stream size : 891 MiB (87%)
Writing library : XviD 1.2.1 (UTC 2008-12-04)
Audio #1
ID : 1
Format : AC-3
Format/Info : Audio Coding 3
Codec ID : 2000
Duration : 1h 33mn
Bit rate mode : Constant
Bit rate : 192 Kbps
Channel(s) : 2 channels
Channel positions : L R
Sampling rate : 48.0 KHz
Stream size : 128 MiB (12%)
Alignment : Aligned on interleaves
Interleave, duration : 33 ms (1.00 video frame)
Interleave, preload duration : 512 ms
Plot
Kevin Carson is a young man living in the projects who has to survive a three-day weekend after his opportunistic neighbors find out he's holding a winning lottery ticket worth $370 million





=========================================== 
http://thepiratebay.org/user/jayden_federer
------------------------------------------- 
http://thepiratebay.org/user/hiest
===========================================






Screenshots:
 
http://www.starshare.ro/bitbucket/vlcsnap2010-08-30-19h12m55s106.jpg
 
http://www.starshare.ro/bitbucket/vlcsnap2010-08-30-19h13m17s65.jpg
 
http://www.starshare.ro/bitbucket/vlcsnap2010-08-30-19h13m12s16.jpg